<?xml version="1.0" encoding="utf-8"?>
<!-- Generator: Adobe Illustrator 16.0.0, SVG Export Plug-In . SVG Version: 6.00 Build 0)  -->
<!DOCTYPE svg PUBLIC "-//W3C//DTD SVG 1.1//EN" "http://www.w3.org/Graphics/SVG/1.1/DTD/svg11.dtd">
<svg version="1.1" id="Layer_1" xmlns="http://www.w3.org/2000/svg" xmlns:xlink="http://www.w3.org/1999/xlink" x="0px" y="0px"
	 width="100px" height="74.707px" viewBox="0 0 100 74.707" enable-background="new 0 0 100 74.707" xml:space="preserve">
<path fill="#F89F57" d="M8.497,8.3h4.98c3.32,0,3.32-8.3,6.641-8.3h3.321h0.008h0.024h0.041h0.03h0.027h0.072h0.036h0.05h0.083
	h0.019h0.112h0.002h0.126h0.002h0.125h0.016h0.108h0.045h0.078h0.088h0.032h0.119h0.026h0.089h0.099h0.013h0.11h0.075h0.033h0.105
	h0.071h0.031h0.099h0.088h0.008h0.093h0.09h0.037h0.05h0.084h0.081h0.022h0.055h0.073h0.07h0.047h0.019h0.063h0.059h0.054h0.051
	h0.007h0.04h0.042h0.039h0.034h0.03h0.026h0.021h0.017h0.012l0,0h0.007h0.002h11.621c3.32,0,3.32,8.3,6.64,8.3h31.542
	c0-1.833,1.487-3.32,3.32-3.32h3.32c1.834,0,3.32,1.487,3.32,3.32h4.98c4.584,0,8.301,3.717,8.301,8.301v49.803
	c0,4.584-3.717,8.301-8.301,8.301H8.497c-4.583,0.002-8.3-3.716-8.3-8.3V16.602C0.197,12.018,3.914,8.3,8.497,8.3L8.497,8.3z
	 M66.602,16.602c-13.75,0-24.902,11.151-24.902,24.902c0,13.75,11.151,24.902,24.902,24.902c13.75,0,24.902-11.151,24.902-24.902
	C91.503,27.752,80.352,16.602,66.602,16.602L66.602,16.602z M20.118,24.902h9.961c1.833,0,3.32-1.487,3.32-3.32v-1.66
	c0-1.834-1.487-3.32-3.32-3.32h-9.961c-1.833,0-3.32,1.487-3.32,3.32v1.66C16.797,23.415,18.285,24.902,20.118,24.902z"/>
<path fill="#F89F57" d="M66.602,23.242c-10.084,0-18.261,8.177-18.261,18.262c0,10.084,8.177,18.262,18.261,18.262
	s18.262-8.178,18.262-18.262C84.863,31.419,76.686,23.242,66.602,23.242L66.602,23.242z"/>
</svg>
